<svg id="svg" version="1.1" xmlns="http://www.w3.org/2000/svg" xmlns:xlink="http://www.w3.org/1999/xlink" width="400" height="353.7070524412297" viewBox="0, 0, 400,353.7070524412297">
  <g id="svgg">
    <path id="path0" d="M131.681 20.173 C 105.778 21.032,95.850 22.584,91.795 26.409 C 89.540 28.536,90.792 29.297,97.345 29.782 C 104.380 30.302,112.786 31.253,121.947 32.565 C 123.504 32.788,125.735 33.105,126.903 33.271 C 129.199 33.596,132.731 34.141,136.106 34.692 C 137.274 34.883,139.186 35.195,140.354 35.386 C 141.522 35.577,143.354 35.884,144.425 36.068 C 145.496 36.253,147.487 36.588,148.850 36.814 C 151.640 37.276,154.035 37.695,156.637 38.175 C 163.374 39.418,164.915 39.714,166.350 40.041 C 167.238 40.243,168.761 40.551,169.735 40.724 C 170.708 40.898,173.018 41.381,174.867 41.798 C 176.717 42.214,178.907 42.697,179.735 42.871 C 183.040 43.563,184.309 43.858,185.664 44.248 C 186.442 44.472,187.717 44.790,188.496 44.956 C 189.274 45.121,190.549 45.437,191.327 45.657 C 193.574 46.293,195.126 46.738,196.460 47.129 C 197.142 47.328,198.139 47.577,198.677 47.681 C 199.215 47.784,199.742 48.010,199.848 48.182 C 199.955 48.355,200.421 48.496,200.885 48.496 C 201.349 48.496,201.827 48.655,201.947 48.850 C 202.067 49.044,202.545 49.204,203.009 49.204 C 203.473 49.204,203.950 49.363,204.071 49.558 C 204.191 49.752,204.601 49.912,204.981 49.912 C 205.362 49.912,205.950 50.052,206.288 50.224 C 206.858 50.514,207.622 50.837,209.646 51.645 C 224.100 57.414,231.703 64.805,229.685 71.125 C 227.669 77.440,221.731 82.232,211.167 86.069 C 201.724 89.500,180.687 91.508,152.639 91.657 C 146.743 91.688,146.918 91.548,142.929 99.457 C 140.426 104.419,140.030 103.528,150.332 116.106 C 150.571 116.398,151.216 117.212,151.764 117.914 C 152.975 119.462,154.157 120.895,160.473 128.466 C 173.929 144.595,180.961 152.033,196.478 166.549 C 200.711 170.509,201.717 171.373,203.575 172.649 C 205.442 173.930,208.806 175.534,210.619 176.007 C 215.159 177.192,216.896 177.498,222.478 178.097 C 227.751 178.662,355.625 178.922,356.814 178.370 C 357.301 178.144,358.043 177.801,358.463 177.610 C 362.840 175.610,358.964 170.265,353.136 170.265 C 352.439 170.265,351.189 170.108,350.359 169.916 C 349.529 169.724,346.858 169.100,344.425 168.531 C 341.991 167.961,339.580 167.402,339.066 167.290 C 337.457 166.938,337.528 166.208,339.657 161.239 C 340.732 158.731,342.033 155.460,342.543 153.982 C 342.845 153.106,343.375 151.752,343.720 150.973 C 344.064 150.195,344.616 148.841,344.946 147.965 C 345.275 147.088,345.753 145.894,346.008 145.310 C 346.263 144.726,346.741 143.531,347.070 142.655 C 347.399 141.779,347.877 140.584,348.131 140.000 C 348.385 139.416,349.104 137.584,349.729 135.929 C 351.116 132.252,351.245 131.931,352.177 129.827 C 352.586 128.904,352.920 127.986,352.920 127.787 C 352.920 127.587,353.067 127.147,353.245 126.809 C 353.919 125.535,355.044 122.826,355.044 122.477 C 355.044 122.277,355.197 121.838,355.383 121.500 C 355.569 121.162,357.576 116.186,359.842 110.442 C 364.280 99.199,364.399 98.898,365.003 97.434 C 365.224 96.898,365.564 96.062,365.758 95.575 C 365.953 95.088,366.272 94.292,366.466 93.805 C 366.661 93.319,366.977 92.522,367.168 92.035 C 367.360 91.549,367.657 90.874,367.829 90.536 C 368.001 90.198,368.142 89.758,368.142 89.558 C 368.142 89.359,368.476 88.441,368.885 87.518 C 369.703 85.671,370.220 84.441,370.629 83.363 C 370.847 82.788,377.635 65.654,378.797 62.743 C 379.635 60.644,379.852 60.107,380.224 59.204 C 380.445 58.668,380.785 57.832,380.980 57.345 C 381.174 56.858,381.493 56.062,381.688 55.575 C 381.882 55.088,382.201 54.292,382.396 53.805 C 382.590 53.319,382.888 52.562,383.056 52.124 C 383.349 51.364,383.683 50.522,384.391 48.761 C 384.567 48.323,385.222 46.611,385.847 44.956 C 386.471 43.301,387.191 41.469,387.448 40.885 C 387.704 40.301,389.134 36.717,390.624 32.920 C 392.115 29.124,393.538 25.540,393.786 24.956 C 395.022 22.045,395.053 21.927,394.600 21.787 C 392.497 21.139,370.040 21.485,362.832 22.277 C 360.788 22.501,357.602 22.847,355.752 23.044 C 351.742 23.472,348.025 23.991,345.841 24.427 C 344.965 24.602,343.292 24.925,342.124 25.144 C 335.073 26.472,326.891 28.743,324.164 30.130 C 323.826 30.302,323.386 30.442,323.187 30.442 C 322.820 30.442,320.796 31.299,317.876 32.689 C 312.810 35.101,306.993 39.415,304.528 42.590 C 303.582 43.809,303.718 44.204,306.534 48.430 C 307.613 50.048,308.655 51.638,308.850 51.963 C 309.044 52.289,309.608 53.194,310.102 53.976 C 313.528 59.395,315.826 67.889,315.253 73.013 C 315.030 75.009,314.852 76.185,314.130 80.446 C 314.006 81.178,313.762 81.864,313.589 81.971 C 313.416 82.078,313.274 82.477,313.274 82.858 C 313.274 83.238,313.134 83.826,312.962 84.164 C 312.790 84.502,312.488 85.177,312.292 85.664 C 312.096 86.150,311.440 87.631,310.835 88.954 C 310.230 90.277,309.735 91.436,309.735 91.529 C 309.735 91.623,309.013 93.224,308.130 95.087 C 299.386 113.551,281.807 148.681,281.193 148.916 C 280.713 149.100,280.010 148.871,278.146 147.923 C 277.808 147.751,277.369 147.611,277.169 147.611 C 276.970 147.611,276.052 147.274,275.129 146.861 C 274.206 146.449,272.973 145.911,272.389 145.665 C 261.775 141.189,251.200 135.723,241.239 129.564 C 239.876 128.722,238.404 127.858,237.967 127.644 C 237.531 127.431,237.172 127.137,237.171 126.991 C 237.169 126.845,236.969 126.725,236.726 126.725 C 236.482 126.725,235.854 126.367,235.329 125.929 C 234.805 125.491,233.491 124.526,232.411 123.785 C 230.279 122.323,229.288 121.062,230.272 121.062 C 230.582 121.062,232.300 120.662,234.090 120.174 C 235.880 119.685,238.619 118.951,240.177 118.542 C 243.055 117.786,247.244 116.611,248.850 116.110 C 249.336 115.959,250.451 115.638,251.327 115.399 C 252.204 115.159,253.239 114.841,253.628 114.690 C 254.018 114.540,255.053 114.224,255.929 113.988 C 256.805 113.752,257.799 113.416,258.137 113.240 C 258.475 113.064,259.063 112.920,259.443 112.920 C 259.824 112.920,260.234 112.761,260.354 112.566 C 260.474 112.372,260.884 112.212,261.265 112.212 C 261.645 112.212,262.233 112.061,262.571 111.875 C 262.909 111.690,264.221 111.201,265.487 110.790 C 266.752 110.379,268.146 109.893,268.584 109.711 C 269.022 109.529,269.779 109.221,270.265 109.027 C 287.221 102.244,298.082 92.672,301.192 81.770 C 301.386 81.088,301.726 79.894,301.948 79.115 C 302.410 77.492,302.237 70.431,301.674 67.965 C 301.072 65.323,300.719 64.344,298.997 60.531 C 298.590 59.630,297.593 57.943,295.965 55.398 C 290.603 47.021,280.702 39.201,270.088 34.961 C 269.602 34.767,268.927 34.467,268.589 34.295 C 268.251 34.123,267.731 33.982,267.434 33.982 C 267.136 33.982,266.616 33.839,266.278 33.663 C 265.940 33.487,264.947 33.153,264.071 32.920 C 263.195 32.688,262.201 32.354,261.863 32.178 C 261.525 32.002,260.858 31.858,260.380 31.858 C 259.902 31.858,259.423 31.717,259.316 31.544 C 259.209 31.370,258.602 31.143,257.968 31.038 C 257.333 30.933,256.097 30.667,255.221 30.446 C 254.345 30.226,253.150 29.964,252.566 29.866 C 251.982 29.767,251.186 29.549,250.796 29.381 C 250.407 29.212,249.611 28.991,249.027 28.890 C 248.442 28.788,247.248 28.553,246.372 28.367 C 234.354 25.824,222.238 23.987,208.850 22.676 C 207.000 22.495,204.212 22.191,202.655 22.001 C 200.008 21.677,195.620 21.374,181.239 20.521 C 173.161 20.042,142.190 19.825,131.681 20.173 M85.752 33.528 C 86.288 33.609,87.164 33.609,87.699 33.528 C 88.235 33.447,87.796 33.380,86.726 33.380 C 85.655 33.380,85.217 33.447,85.752 33.528 M93.097 36.283 C 92.238 37.159,91.614 37.876,91.711 37.876 C 91.808 37.876,92.591 37.159,93.451 36.283 C 94.311 35.407,94.935 34.690,94.838 34.690 C 94.740 34.690,93.957 35.407,93.097 36.283 M112.832 36.356 C 113.270 36.440,113.987 36.440,114.425 36.356 C 114.863 36.272,114.504 36.203,113.628 36.203 C 112.752 36.203,112.394 36.272,112.832 36.356 M118.739 39.027 L 117.699 40.177 118.850 39.137 C 119.922 38.168,120.163 37.876,119.889 37.876 C 119.828 37.876,119.311 38.394,118.739 39.027 M125.818 46.814 L 124.779 47.965 125.929 46.925 C 127.002 45.956,127.242 45.664,126.969 45.664 C 126.908 45.664,126.390 46.181,125.818 46.814 M122.114 50.531 L 119.823 52.920 122.212 50.630 C 124.432 48.502,124.764 48.142,124.503 48.142 C 124.449 48.142,123.374 49.217,122.114 50.531 M63.880 52.478 L 62.124 54.336 63.982 52.580 C 65.709 50.947,66.003 50.619,65.739 50.619 C 65.683 50.619,64.847 51.456,63.880 52.478 M36.106 175.023 C 36.106 175.499,36.237 175.968,36.396 176.067 C 36.556 176.165,36.617 175.776,36.533 175.203 C 36.347 173.937,36.106 173.836,36.106 175.023 M93.179 220.885 C 93.179 221.566,93.252 221.845,93.341 221.504 C 93.430 221.164,93.430 220.606,93.341 220.265 C 93.252 219.925,93.179 220.204,93.179 220.885 M92.472 225.487 C 92.472 226.168,92.544 226.447,92.633 226.106 C 92.722 225.765,92.722 225.208,92.633 224.867 C 92.544 224.527,92.472 224.805,92.472 225.487 M91.783 230.619 C 91.785 231.593,91.854 231.949,91.935 231.411 C 92.017 230.873,92.015 230.077,91.931 229.641 C 91.847 229.206,91.780 229.646,91.783 230.619 M74.418 234.336 C 74.418 235.018,74.491 235.296,74.580 234.956 C 74.669 234.615,74.669 234.058,74.580 233.717 C 74.491 233.376,74.418 233.655,74.418 234.336 M91.075 236.637 C 91.077 237.611,91.146 237.967,91.227 237.429 C 91.309 236.891,91.307 236.094,91.223 235.659 C 91.139 235.223,91.072 235.664,91.075 236.637 M73.725 240.354 C 73.725 241.230,73.794 241.588,73.878 241.150 C 73.963 240.712,73.963 239.996,73.878 239.558 C 73.794 239.119,73.725 239.478,73.725 240.354 M90.419 252.389 C 90.419 257.159,90.469 259.111,90.530 256.726 C 90.591 254.341,90.591 250.438,90.530 248.053 C 90.469 245.668,90.419 247.619,90.419 252.389 M73.026 247.788 C 73.026 248.858,73.093 249.296,73.174 248.761 C 73.255 248.226,73.255 247.350,73.174 246.814 C 73.093 246.279,73.026 246.717,73.026 247.788 M72.350 257.876 C 72.351 260.407,72.407 261.396,72.475 260.074 C 72.544 258.752,72.543 256.681,72.474 255.472 C 72.405 254.263,72.349 255.345,72.350 257.876 M91.075 267.434 C 91.077 268.407,91.146 268.763,91.227 268.225 C 91.309 267.687,91.307 266.891,91.223 266.455 C 91.139 266.020,91.072 266.460,91.075 267.434 M91.764 272.212 C 91.764 272.894,91.836 273.173,91.925 272.832 C 92.014 272.491,92.014 271.934,91.925 271.593 C 91.836 271.252,91.764 271.531,91.764 272.212 M72.349 277.876 C 72.349 280.310,72.405 281.305,72.474 280.088 C 72.544 278.872,72.544 276.881,72.474 275.664 C 72.405 274.447,72.349 275.442,72.349 277.876 M73.022 286.903 C 73.024 287.876,73.093 288.232,73.174 287.694 C 73.256 287.156,73.254 286.360,73.170 285.924 C 73.086 285.489,73.019 285.929,73.022 286.903 M151.659 290.354 L 150.619 291.504 151.770 290.465 C 152.842 289.496,153.083 289.204,152.810 289.204 C 152.749 289.204,152.231 289.721,151.659 290.354 M73.710 292.743 C 73.710 293.425,73.783 293.704,73.872 293.363 C 73.961 293.022,73.961 292.465,73.872 292.124 C 73.783 291.783,73.710 292.062,73.710 292.743 " stroke="none" fill="#ec2c2c" fill-rule="evenodd"></path>
    <path id="path1" d="M81.770 36.129 C 80.115 37.508,78.363 38.970,77.876 39.377 C 71.376 44.818,63.216 53.111,55.717 61.900 C 52.441 65.739,42.832 79.121,42.832 79.845 C 42.832 79.968,42.532 80.491,42.166 81.007 C 40.518 83.332,35.807 92.090,33.093 97.876 C 29.230 106.112,28.319 108.193,28.319 108.775 C 28.319 109.030,28.184 109.390,28.019 109.575 C 27.854 109.760,27.202 111.265,26.569 112.920 C 25.937 114.575,25.291 116.248,25.134 116.637 C 24.976 117.027,24.498 118.301,24.071 119.469 C 23.643 120.637,23.154 121.912,22.984 122.301 C 22.348 123.754,16.636 141.382,15.585 145.133 C 15.340 146.009,15.017 147.124,14.867 147.611 C 14.718 148.097,14.407 149.212,14.176 150.088 C 13.946 150.965,13.609 152.171,13.427 152.768 C 13.246 153.366,13.097 154.193,13.097 154.606 C 13.097 155.019,12.956 155.444,12.782 155.551 C 12.609 155.658,12.382 156.265,12.277 156.899 C 12.172 157.534,11.906 158.770,11.685 159.646 C 11.464 160.522,11.203 161.717,11.105 162.301 C 11.006 162.885,10.788 163.681,10.619 164.071 C 10.451 164.460,10.230 165.257,10.128 165.841 C 10.027 166.425,9.777 167.659,9.573 168.584 C 9.370 169.509,9.037 171.022,8.834 171.947 C 8.630 172.872,8.375 174.056,8.266 174.578 C 7.326 179.091,14.190 178.579,15.582 174.032 C 15.829 173.226,16.345 171.531,16.729 170.265 C 17.113 169.000,17.568 167.688,17.740 167.350 C 17.912 167.012,18.053 166.424,18.053 166.043 C 18.053 165.663,18.212 165.253,18.407 165.133 C 18.602 165.012,18.761 164.603,18.761 164.222 C 18.761 163.842,18.913 163.254,19.098 162.916 C 19.284 162.577,19.772 161.265,20.184 160.000 C 20.595 158.735,21.072 157.381,21.244 156.991 C 21.416 156.602,21.789 155.566,22.072 154.690 C 22.846 152.294,24.890 147.011,25.528 145.757 C 25.700 145.419,25.841 144.997,25.841 144.820 C 25.841 144.643,27.015 141.734,28.450 138.355 C 30.999 132.354,31.639 130.893,33.623 126.549 C 34.157 125.381,34.894 123.711,35.261 122.839 C 37.243 118.133,48.015 97.598,49.963 94.813 C 50.324 94.296,50.619 93.769,50.619 93.643 C 50.619 93.516,51.257 92.474,52.035 91.327 C 52.814 90.181,53.451 89.155,53.451 89.048 C 53.451 88.837,60.048 78.855,63.252 74.218 C 64.351 72.628,65.741 70.611,66.341 69.735 C 66.942 68.858,67.521 68.062,67.628 67.965 C 67.734 67.867,68.202 67.230,68.666 66.549 C 71.510 62.373,81.603 49.232,84.299 46.195 C 84.817 45.611,85.933 44.308,86.780 43.300 C 87.626 42.292,89.798 39.875,91.605 37.930 C 93.413 35.985,94.767 34.320,94.614 34.230 C 94.461 34.139,92.186 33.966,89.558 33.844 L 84.779 33.622 81.770 36.129 M107.788 37.914 C 94.917 48.908,84.367 60.306,76.151 72.092 C 75.358 73.229,74.265 74.796,73.722 75.575 C 72.729 76.999,68.816 83.406,67.129 86.372 C 66.133 88.121,60.496 99.460,59.430 101.858 C 59.062 102.686,58.422 104.119,58.008 105.044 C 57.594 105.969,57.133 107.044,56.982 107.434 C 56.832 107.823,56.445 108.743,56.121 109.478 C 55.105 111.788,51.683 120.768,50.763 123.540 C 50.278 125.000,49.740 126.513,49.566 126.903 C 49.392 127.292,49.061 128.248,48.830 129.027 C 48.598 129.805,48.269 130.719,48.098 131.057 C 47.927 131.395,47.788 131.983,47.788 132.364 C 47.788 132.744,47.628 133.154,47.434 133.274 C 47.239 133.395,47.080 133.873,47.080 134.336 C 47.080 134.800,46.920 135.278,46.726 135.398 C 46.531 135.519,46.372 136.076,46.372 136.637 C 46.372 137.198,46.212 137.756,46.018 137.876 C 45.823 137.996,45.664 138.406,45.664 138.787 C 45.664 139.167,45.524 139.755,45.353 140.093 C 44.877 141.036,44.248 143.166,44.248 143.835 C 44.248 144.165,44.108 144.711,43.937 145.049 C 43.421 146.072,42.832 148.145,42.832 148.942 C 42.832 149.355,42.690 149.780,42.517 149.887 C 42.344 149.994,42.120 150.601,42.019 151.236 C 41.918 151.870,41.651 153.027,41.425 153.805 C 41.200 154.584,40.859 155.858,40.668 156.637 C 40.478 157.416,40.185 158.611,40.018 159.292 C 39.851 159.973,39.484 161.407,39.202 162.478 C 38.920 163.549,38.481 165.381,38.225 166.549 C 37.970 167.717,37.468 169.853,37.111 171.296 C 35.856 176.356,37.396 178.957,40.804 177.533 C 42.676 176.751,42.950 176.189,46.154 166.549 C 47.837 161.487,49.355 157.027,49.527 156.637 C 49.699 156.248,50.031 155.372,50.265 154.690 C 50.499 154.009,50.819 153.133,50.975 152.743 C 51.132 152.354,51.768 150.681,52.389 149.027 C 53.515 146.029,53.798 145.300,54.561 143.451 C 54.781 142.916,55.100 142.119,55.269 141.681 C 55.869 140.121,56.222 139.270,56.956 137.614 C 57.365 136.692,57.699 135.860,57.699 135.767 C 57.699 135.673,58.077 134.755,58.540 133.727 C 59.002 132.699,60.053 130.345,60.876 128.496 C 63.742 122.052,69.439 110.335,71.718 106.195 C 72.415 104.929,73.633 102.699,74.424 101.239 C 75.216 99.779,77.210 96.354,78.857 93.628 C 80.503 90.903,82.170 88.115,82.561 87.434 C 83.420 85.937,91.400 74.191,95.067 69.027 C 96.518 66.982,98.209 64.593,98.825 63.717 C 99.441 62.841,100.554 61.385,101.300 60.482 C 102.045 59.579,102.655 58.676,102.655 58.476 C 102.655 58.276,102.792 58.059,102.960 57.994 C 103.129 57.929,104.301 56.500,105.565 54.818 C 109.145 50.056,112.719 45.748,117.643 40.261 C 118.999 38.750,120.045 37.462,119.966 37.399 C 119.707 37.191,114.916 36.493,112.389 36.295 L 109.912 36.100 107.788 37.914 M133.010 40.419 C 127.510 45.290,119.568 53.209,114.854 58.524 C 111.623 62.167,102.080 74.913,100.880 77.190 C 100.630 77.665,100.329 78.133,100.211 78.230 C 99.989 78.415,98.121 81.400,96.890 83.540 C 92.986 90.322,88.233 100.072,85.069 107.788 C 84.190 109.929,83.232 112.239,82.939 112.920 C 82.646 113.602,82.284 114.478,82.135 114.867 C 81.986 115.257,81.700 115.973,81.499 116.460 C 81.298 116.947,80.942 117.903,80.708 118.584 C 80.193 120.083,79.671 121.381,79.251 122.208 C 79.079 122.546,78.938 123.134,78.938 123.514 C 78.938 123.895,78.779 124.304,78.584 124.425 C 78.389 124.545,78.230 125.023,78.230 125.487 C 78.230 125.950,78.071 126.428,77.876 126.549 C 77.681 126.669,77.522 127.124,77.522 127.561 C 77.522 127.997,77.391 128.505,77.230 128.690 C 77.069 128.875,76.728 129.743,76.471 130.619 C 76.215 131.496,75.573 133.566,75.044 135.221 C 74.515 136.876,73.883 138.947,73.638 139.823 C 73.394 140.699,73.071 141.735,72.920 142.124 C 72.770 142.513,72.448 143.549,72.205 144.425 C 71.321 147.609,71.161 148.172,70.647 149.912 C 70.021 152.025,68.445 157.953,67.753 160.796 C 67.480 161.916,67.002 163.827,66.691 165.044 C 66.163 167.110,65.836 168.554,65.309 171.150 C 65.191 171.735,64.927 172.876,64.722 173.687 C 63.817 177.270,67.810 179.167,70.708 176.530 C 71.146 176.132,71.504 175.524,71.504 175.180 C 71.504 174.836,71.664 174.457,71.858 174.336 C 72.053 174.216,72.212 173.727,72.212 173.249 C 72.212 172.771,72.353 172.103,72.524 171.765 C 72.696 171.427,73.594 168.841,74.520 166.018 C 76.064 161.309,79.257 152.314,79.986 150.619 C 80.153 150.230,81.354 147.204,82.653 143.894 C 83.953 140.584,85.258 137.319,85.553 136.637 C 85.848 135.956,86.217 135.080,86.372 134.690 C 86.527 134.301,86.928 133.345,87.263 132.566 C 87.598 131.788,88.108 130.593,88.397 129.912 C 89.625 127.020,90.439 125.316,95.413 115.231 C 98.291 109.396,101.156 103.741,101.779 102.665 C 102.403 101.588,103.310 99.991,103.796 99.115 C 106.712 93.853,108.844 90.373,112.980 84.119 C 114.894 81.226,116.460 78.730,116.460 78.574 C 116.460 78.417,116.593 78.236,116.755 78.171 C 116.918 78.106,118.218 76.301,119.645 74.159 C 121.072 72.018,122.345 70.186,122.474 70.088 C 122.603 69.991,123.413 68.895,124.274 67.654 C 125.136 66.412,126.159 64.959,126.549 64.425 C 126.938 63.891,127.926 62.517,128.744 61.373 C 131.158 57.996,138.731 48.429,142.553 43.928 C 145.219 40.790,145.208 40.855,143.097 40.576 C 142.173 40.454,140.540 40.214,139.469 40.043 C 133.980 39.164,134.458 39.136,133.010 40.419 M158.407 45.409 C 149.940 54.296,141.893 64.488,133.547 76.897 C 130.964 80.738,128.850 83.975,128.850 84.089 C 128.850 84.204,128.372 84.992,127.788 85.841 C 127.204 86.690,126.726 87.490,126.726 87.620 C 126.726 87.749,126.426 88.278,126.059 88.795 C 125.693 89.312,125.055 90.332,124.643 91.062 C 124.231 91.792,123.593 92.907,123.226 93.540 C 120.070 98.976,118.181 102.364,116.369 105.841 C 111.549 115.086,110.796 116.599,110.796 117.050 C 110.796 117.309,110.637 117.522,110.442 117.522 C 110.248 117.522,110.088 117.686,110.088 117.886 C 110.088 118.086,109.550 119.401,108.893 120.807 C 106.414 126.107,105.133 128.917,105.133 129.057 C 105.133 129.136,104.575 130.408,103.894 131.883 C 103.212 133.358,102.655 134.628,102.655 134.706 C 102.655 134.783,102.239 135.767,101.732 136.892 C 100.424 139.790,100.011 140.778,99.100 143.186 C 98.658 144.354,98.162 145.461,97.998 145.646 C 97.834 145.831,97.699 146.271,97.699 146.624 C 97.699 146.977,97.558 147.543,97.386 147.881 C 97.089 148.465,96.526 149.775,95.905 151.327 C 95.749 151.717,95.420 152.673,95.172 153.451 C 94.925 154.230,94.596 155.019,94.441 155.204 C 94.286 155.388,94.159 155.897,94.159 156.333 C 94.159 156.769,94.032 157.205,93.875 157.302 C 93.719 157.398,93.369 158.294,93.097 159.292 C 92.826 160.290,92.475 161.186,92.319 161.282 C 92.163 161.379,92.035 161.815,92.035 162.251 C 92.035 162.687,91.905 163.196,91.745 163.381 C 91.586 163.565,91.089 164.912,90.641 166.372 C 90.193 167.832,89.694 169.345,89.531 169.735 C 89.369 170.124,89.004 171.239,88.722 172.212 C 88.440 173.186,87.417 176.611,86.448 179.823 C 85.480 183.035,84.579 186.062,84.447 186.549 C 82.885 192.280,82.271 194.661,81.936 196.283 C 81.815 196.867,81.580 197.664,81.413 198.053 C 81.247 198.442,81.027 199.239,80.925 199.823 C 80.751 200.818,80.514 201.936,79.646 205.841 C 78.500 210.998,78.142 212.731,77.508 216.195 C 76.593 221.196,76.368 222.526,75.397 228.673 C 71.132 255.682,71.400 285.747,76.071 304.248 C 76.268 305.027,76.527 306.142,76.648 306.726 C 76.769 307.310,76.994 308.106,77.148 308.496 C 77.303 308.885,77.777 310.319,78.202 311.681 C 78.627 313.044,79.126 314.518,79.310 314.956 C 79.495 315.394,79.786 316.111,79.958 316.549 C 82.960 324.224,88.903 332.608,94.159 336.585 C 94.840 337.100,95.695 337.790,96.059 338.118 C 96.423 338.446,98.095 339.381,99.776 340.197 C 101.457 341.013,103.108 341.820,103.447 341.990 C 103.785 342.161,104.350 342.301,104.703 342.301 C 105.056 342.301,105.496 342.444,105.681 342.619 C 106.609 343.495,119.941 343.840,123.363 343.076 C 124.336 342.859,125.652 342.578,126.288 342.450 C 126.923 342.323,127.529 342.078,127.636 341.906 C 127.742 341.734,128.099 341.594,128.428 341.595 C 134.226 341.613,151.737 329.744,163.907 317.547 C 166.737 314.710,170.082 311.195,171.340 309.735 C 172.598 308.274,173.707 307.000,173.805 306.903 C 174.224 306.484,177.266 302.722,178.144 301.535 C 178.672 300.822,179.307 300.025,179.555 299.765 C 180.227 299.060,184.847 292.829,186.205 290.796 C 186.855 289.823,187.498 288.947,187.634 288.850 C 188.157 288.476,196.943 274.817,199.020 271.150 C 199.406 270.469,199.847 269.752,200.000 269.558 C 200.153 269.363,200.599 268.628,200.991 267.925 C 202.417 265.365,202.658 264.953,202.832 264.779 C 202.929 264.681,203.389 263.885,203.853 263.009 C 204.773 261.271,205.752 259.473,208.285 254.867 C 210.630 250.602,219.322 232.910,221.024 228.938 C 221.337 228.208,221.848 227.013,222.161 226.283 C 222.473 225.553,223.014 224.319,223.363 223.540 C 224.314 221.417,224.965 219.891,226.007 217.345 C 226.524 216.080,227.230 214.407,227.574 213.628 C 228.106 212.426,229.193 209.749,230.484 206.460 C 230.656 206.022,230.956 205.265,231.150 204.779 C 231.345 204.292,231.648 203.535,231.823 203.097 C 231.998 202.659,232.332 201.743,232.566 201.062 C 232.800 200.381,233.119 199.504,233.274 199.115 C 233.430 198.726,233.748 197.850,233.982 197.168 C 234.434 195.853,234.915 194.649,235.493 193.387 C 236.317 191.586,236.000 191.504,228.192 191.504 C 219.813 191.504,220.283 191.330,218.209 195.221 C 217.483 196.584,216.769 197.858,216.623 198.053 C 216.477 198.248,215.942 199.164,215.435 200.088 C 213.600 203.435,212.823 204.812,211.731 206.653 C 211.120 207.683,210.619 208.585,210.619 208.657 C 210.619 208.729,208.132 212.903,205.091 217.934 C 202.050 222.964,199.233 227.677,198.830 228.407 C 198.428 229.137,197.969 229.735,197.810 229.735 C 197.652 229.735,197.522 229.901,197.522 230.104 C 197.522 230.308,196.726 231.655,195.752 233.097 C 194.779 234.540,193.982 235.823,193.982 235.948 C 193.982 236.244,184.335 250.485,181.092 254.977 C 179.712 256.888,178.425 258.719,178.230 259.048 C 178.035 259.377,177.781 259.726,177.664 259.823 C 177.548 259.920,176.433 261.367,175.186 263.038 C 170.284 269.612,167.226 273.484,164.425 276.668 C 164.230 276.890,163.196 278.088,162.127 279.332 C 153.690 289.147,143.000 299.032,136.332 303.186 C 136.020 303.381,135.124 303.948,134.342 304.447 C 127.770 308.641,119.084 311.264,114.993 310.291 C 110.919 309.322,105.304 305.209,102.637 301.239 C 102.179 300.558,101.710 299.920,101.594 299.823 C 101.329 299.599,100.003 297.351,98.758 295.015 C 90.690 279.873,88.241 253.653,92.348 226.372 C 92.553 225.009,92.865 222.938,93.041 221.770 C 94.128 214.558,97.592 199.661,100.551 189.469 C 101.243 187.085,101.552 185.991,101.776 185.133 C 101.902 184.646,102.134 183.929,102.290 183.540 C 102.446 183.150,102.767 182.115,103.003 181.239 C 103.239 180.363,103.576 179.369,103.751 179.031 C 103.927 178.693,104.071 178.173,104.071 177.876 C 104.071 177.579,104.215 177.059,104.390 176.721 C 104.566 176.383,104.903 175.389,105.139 174.513 C 105.374 173.637,105.698 172.602,105.858 172.212 C 106.017 171.823,106.340 170.867,106.574 170.088 C 106.809 169.310,107.130 168.354,107.288 167.965 C 107.446 167.575,107.810 166.540,108.096 165.664 C 109.996 159.858,115.196 145.857,116.147 143.987 C 116.319 143.649,116.460 143.203,116.460 142.997 C 116.460 142.790,116.779 141.961,117.168 141.155 C 117.558 140.349,117.876 139.559,117.876 139.399 C 117.876 139.238,118.211 138.352,118.619 137.430 C 119.028 136.507,119.506 135.394,119.681 134.956 C 119.857 134.518,120.143 133.801,120.318 133.363 C 120.660 132.507,121.101 131.468,123.325 126.283 C 126.795 118.198,136.178 99.162,138.987 94.513 C 139.399 93.832,140.129 92.558,140.611 91.681 C 142.393 88.439,146.381 81.842,148.643 78.395 C 149.925 76.441,151.133 74.591,151.327 74.283 C 154.241 69.673,162.353 58.887,165.539 55.386 C 165.900 54.990,167.071 53.639,168.142 52.384 C 169.212 51.129,170.845 49.358,171.770 48.449 C 174.115 46.144,174.090 46.080,170.619 45.493 C 169.938 45.377,168.584 45.125,167.611 44.931 C 159.539 43.326,160.436 43.279,158.407 45.409 " stroke="none" fill="#1f1d17" fill-rule="evenodd"></path>
<!--    <path id="path2" d="M0.000 176.991 L 0.000 353.982 200.000 353.982 L 400.000 353.982 400.000 176.991 L 400.000 0.000 200.000 0.000 L 0.000 0.000 0.000 176.991 M181.239 20.521 C 195.620 21.374,200.008 21.677,202.655 22.001 C 204.212 22.191,207.000 22.495,208.850 22.676 C 222.238 23.987,234.354 25.824,246.372 28.367 C 247.248 28.553,248.442 28.788,249.027 28.890 C 249.611 28.991,250.407 29.212,250.796 29.381 C 251.186 29.549,251.982 29.767,252.566 29.866 C 253.150 29.964,254.345 30.226,255.221 30.446 C 256.097 30.667,257.333 30.933,257.968 31.038 C 258.602 31.143,259.209 31.370,259.316 31.544 C 259.423 31.717,259.902 31.858,260.380 31.858 C 260.858 31.858,261.525 32.002,261.863 32.178 C 262.201 32.354,263.195 32.688,264.071 32.920 C 264.947 33.153,265.940 33.487,266.278 33.663 C 266.616 33.839,267.136 33.982,267.434 33.982 C 267.731 33.982,268.251 34.123,268.589 34.295 C 268.927 34.467,269.602 34.767,270.088 34.961 C 280.702 39.201,290.603 47.021,295.965 55.398 C 297.593 57.943,298.590 59.630,298.997 60.531 C 300.719 64.344,301.072 65.323,301.674 67.965 C 302.237 70.431,302.410 77.492,301.948 79.115 C 301.726 79.894,301.386 81.088,301.192 81.770 C 298.528 91.107,289.759 99.917,277.168 105.904 C 272.884 107.941,272.153 108.272,270.265 109.027 C 269.779 109.221,269.022 109.529,268.584 109.711 C 268.146 109.893,266.752 110.379,265.487 110.790 C 264.221 111.201,262.909 111.690,262.571 111.875 C 262.233 112.061,261.645 112.212,261.265 112.212 C 260.884 112.212,260.474 112.372,260.354 112.566 C 260.234 112.761,259.824 112.920,259.443 112.920 C 259.063 112.920,258.475 113.064,258.137 113.240 C 257.799 113.416,256.805 113.752,255.929 113.988 C 255.053 114.224,254.018 114.540,253.628 114.690 C 253.239 114.841,252.204 115.159,251.327 115.399 C 250.451 115.638,249.336 115.959,248.850 116.110 C 247.244 116.611,243.055 117.786,240.177 118.542 C 238.619 118.951,235.880 119.685,234.090 120.174 C 232.300 120.662,230.582 121.062,230.272 121.062 C 229.288 121.062,230.279 122.323,232.411 123.785 C 233.491 124.526,234.805 125.491,235.329 125.929 C 235.854 126.367,236.482 126.725,236.726 126.725 C 236.969 126.725,237.169 126.845,237.171 126.991 C 237.172 127.137,237.531 127.431,237.967 127.644 C 238.404 127.858,239.876 128.722,241.239 129.564 C 251.200 135.723,261.775 141.189,272.389 145.665 C 272.973 145.911,274.206 146.449,275.129 146.861 C 276.052 147.274,276.970 147.611,277.169 147.611 C 277.369 147.611,277.808 147.751,278.146 147.923 C 280.010 148.871,280.713 149.100,281.193 148.916 C 281.807 148.681,299.386 113.551,308.130 95.087 C 309.013 93.224,309.735 91.623,309.735 91.529 C 309.735 91.436,310.230 90.277,310.835 88.954 C 311.440 87.631,312.096 86.150,312.292 85.664 C 312.488 85.177,312.790 84.502,312.962 84.164 C 313.134 83.826,313.274 83.238,313.274 82.858 C 313.274 82.477,313.416 82.078,313.589 81.971 C 313.762 81.864,314.006 81.178,314.130 80.446 C 314.852 76.185,315.030 75.009,315.253 73.013 C 315.826 67.889,313.528 59.395,310.102 53.976 C 309.608 53.194,309.044 52.289,308.850 51.963 C 308.655 51.638,307.613 50.048,306.534 48.430 C 303.718 44.204,303.582 43.809,304.528 42.590 C 306.993 39.415,312.810 35.101,317.876 32.689 C 320.796 31.299,322.820 30.442,323.187 30.442 C 323.386 30.442,323.826 30.302,324.164 30.130 C 326.891 28.743,335.073 26.472,342.124 25.144 C 343.292 24.925,344.965 24.602,345.841 24.427 C 348.025 23.991,351.742 23.472,355.752 23.044 C 357.602 22.847,360.788 22.501,362.832 22.277 C 370.040 21.485,392.497 21.139,394.600 21.787 C 395.053 21.927,395.022 22.045,393.786 24.956 C 393.538 25.540,392.115 29.124,390.624 32.920 C 389.134 36.717,387.704 40.301,387.448 40.885 C 387.191 41.469,386.471 43.301,385.847 44.956 C 385.222 46.611,384.567 48.323,384.391 48.761 C 383.683 50.522,383.349 51.364,383.056 52.124 C 382.888 52.562,382.590 53.319,382.396 53.805 C 382.201 54.292,381.882 55.088,381.688 55.575 C 381.493 56.062,381.174 56.858,380.980 57.345 C 380.785 57.832,380.445 58.668,380.224 59.204 C 379.852 60.107,379.635 60.644,378.797 62.743 C 377.635 65.654,370.847 82.788,370.629 83.363 C 370.220 84.441,369.703 85.671,368.885 87.518 C 368.476 88.441,368.142 89.359,368.142 89.558 C 368.142 89.758,368.001 90.198,367.829 90.536 C 367.657 90.874,367.360 91.549,367.168 92.035 C 366.977 92.522,366.661 93.319,366.466 93.805 C 366.272 94.292,365.953 95.088,365.758 95.575 C 365.564 96.062,365.224 96.898,365.003 97.434 C 364.399 98.898,364.280 99.199,359.842 110.442 C 357.576 116.186,355.569 121.162,355.383 121.500 C 355.197 121.838,355.044 122.277,355.044 122.477 C 355.044 122.826,353.919 125.535,353.245 126.809 C 353.067 127.147,352.920 127.587,352.920 127.787 C 352.920 127.986,352.586 128.904,352.177 129.827 C 351.245 131.931,351.116 132.252,349.729 135.929 C 349.104 137.584,348.385 139.416,348.131 140.000 C 347.877 140.584,347.399 141.779,347.070 142.655 C 346.741 143.531,346.263 144.726,346.008 145.310 C 345.753 145.894,345.275 147.088,344.946 147.965 C 344.616 148.841,344.064 150.195,343.720 150.973 C 343.375 151.752,342.845 153.106,342.543 153.982 C 342.033 155.460,340.732 158.731,339.657 161.239 C 337.528 166.208,337.457 166.938,339.066 167.290 C 339.580 167.402,341.991 167.961,344.425 168.531 C 346.858 169.100,349.529 169.724,350.359 169.916 C 351.189 170.108,352.439 170.265,353.136 170.265 C 358.964 170.265,362.840 175.610,358.463 177.610 C 358.043 177.801,357.301 178.144,356.814 178.370 C 356.148 178.679,339.859 178.744,290.973 178.629 C 218.867 178.460,220.184 178.503,210.619 176.007 C 207.677 175.239,203.490 172.890,200.726 170.456 C 191.433 162.271,177.191 147.954,169.204 138.768 C 165.881 134.947,165.839 134.898,160.473 128.466 C 154.157 120.895,152.975 119.462,151.764 117.914 C 151.216 117.212,150.571 116.398,150.332 116.106 C 140.030 103.528,140.426 104.419,142.929 99.457 C 146.918 91.548,146.743 91.688,152.639 91.657 C 180.687 91.508,201.724 89.500,211.167 86.069 C 221.731 82.232,227.669 77.440,229.685 71.125 C 230.377 68.957,230.282 68.318,228.746 64.789 C 227.043 60.878,219.124 55.428,209.646 51.645 C 207.622 50.837,206.858 50.514,206.288 50.224 C 205.950 50.052,205.362 49.912,204.981 49.912 C 204.601 49.912,204.191 49.752,204.071 49.558 C 203.950 49.363,203.473 49.204,203.009 49.204 C 202.545 49.204,202.067 49.044,201.947 48.850 C 201.827 48.655,201.349 48.496,200.885 48.496 C 200.421 48.496,199.955 48.355,199.848 48.182 C 199.742 48.010,199.215 47.784,198.677 47.681 C 198.139 47.577,197.142 47.328,196.460 47.129 C 195.126 46.738,193.574 46.293,191.327 45.657 C 190.549 45.437,189.274 45.121,188.496 44.956 C 187.717 44.790,186.442 44.472,185.664 44.248 C 184.309 43.858,183.040 43.563,179.735 42.871 C 178.907 42.697,176.717 42.214,174.867 41.798 C 173.018 41.381,170.708 40.898,169.735 40.724 C 168.761 40.551,167.238 40.243,166.350 40.041 C 164.915 39.714,163.374 39.418,156.637 38.175 C 154.035 37.695,151.640 37.276,148.850 36.814 C 147.487 36.588,145.496 36.253,144.425 36.068 C 143.354 35.884,141.522 35.577,140.354 35.386 C 139.186 35.195,137.274 34.883,136.106 34.692 C 132.731 34.141,129.199 33.596,126.903 33.271 C 125.735 33.105,123.504 32.788,121.947 32.565 C 112.786 31.253,104.380 30.302,97.345 29.782 C 87.484 29.052,89.109 25.609,100.708 22.657 C 109.834 20.333,156.985 19.083,181.239 20.521 M92.389 33.937 C 95.326 34.221,95.307 34.363,91.839 37.942 C 89.461 40.396,83.790 46.863,81.770 49.425 C 81.478 49.795,80.841 50.585,80.354 51.181 C 79.867 51.776,79.071 52.795,78.584 53.444 C 78.097 54.094,76.982 55.535,76.106 56.646 C 75.230 57.757,74.065 59.285,73.517 60.041 C 72.970 60.797,71.639 62.611,70.559 64.071 C 69.480 65.531,67.662 68.080,66.519 69.735 C 59.387 80.065,57.906 82.242,56.216 84.877 C 55.182 86.489,53.740 88.719,53.011 89.833 C 52.282 90.947,51.575 92.097,51.440 92.389 C 51.304 92.681,50.723 93.717,50.149 94.690 C 48.548 97.404,47.765 98.778,46.720 100.708 C 46.193 101.681,45.182 103.513,44.473 104.779 C 43.074 107.277,35.610 122.260,34.334 125.133 C 32.737 128.727,32.127 130.114,31.685 131.150 C 31.436 131.735,30.896 132.967,30.484 133.890 C 30.072 134.813,29.735 135.651,29.735 135.752 C 29.735 135.854,29.400 136.692,28.991 137.614 C 28.582 138.537,28.120 139.611,27.965 140.000 C 27.809 140.389,27.368 141.425,26.984 142.301 C 25.450 145.808,21.468 156.528,19.621 162.124 C 19.139 163.584,18.589 165.055,18.399 165.393 C 18.209 165.731,18.053 166.251,18.053 166.549 C 18.053 166.846,17.910 167.366,17.735 167.704 C 17.561 168.042,17.064 169.513,16.631 170.973 C 15.870 173.545,15.418 174.823,14.882 175.929 C 12.885 180.044,7.179 177.548,8.432 173.108 C 8.626 172.421,8.959 171.022,9.171 170.000 C 10.093 165.565,10.369 164.383,10.639 163.717 C 10.796 163.327,11.006 162.531,11.105 161.947 C 11.203 161.363,11.464 160.168,11.685 159.292 C 11.906 158.416,12.172 157.180,12.277 156.545 C 12.382 155.911,12.609 155.304,12.782 155.197 C 12.956 155.090,13.097 154.665,13.097 154.252 C 13.097 153.839,13.246 153.012,13.427 152.415 C 13.609 151.817,13.946 150.611,14.176 149.735 C 14.407 148.858,14.718 147.743,14.867 147.257 C 15.017 146.770,15.338 145.655,15.582 144.779 C 15.825 143.903,16.300 142.310,16.637 141.239 C 16.974 140.168,17.446 138.575,17.686 137.699 C 17.926 136.823,18.266 135.830,18.442 135.492 C 18.617 135.153,18.761 134.566,18.761 134.185 C 18.761 133.804,18.920 133.395,19.115 133.274 C 19.310 133.154,19.469 132.676,19.469 132.212 C 19.469 131.749,19.610 131.282,19.782 131.176 C 19.954 131.069,20.175 130.542,20.273 130.004 C 20.371 129.467,21.171 127.035,22.050 124.602 C 22.929 122.168,23.904 119.460,24.216 118.584 C 24.528 117.708,24.927 116.673,25.101 116.283 C 25.276 115.894,25.937 114.221,26.569 112.566 C 27.202 110.912,27.854 109.406,28.019 109.221 C 28.184 109.036,28.319 108.668,28.319 108.402 C 28.319 108.137,28.780 106.934,29.345 105.730 C 29.909 104.525,30.666 102.827,31.026 101.956 C 33.617 95.691,41.971 80.435,45.820 74.940 C 53.364 64.171,60.560 55.568,68.556 47.761 C 73.247 43.180,80.502 36.789,82.976 35.057 C 83.383 34.771,84.035 34.238,84.425 33.871 C 85.041 33.289,85.453 33.236,87.611 33.459 C 88.973 33.599,91.124 33.815,92.389 33.937 M115.858 36.485 C 116.792 36.666,118.032 36.814,118.613 36.814 C 120.461 36.814,120.290 37.736,117.999 40.118 C 116.844 41.319,115.034 43.336,113.976 44.602 C 112.919 45.867,111.969 46.982,111.866 47.080 C 111.762 47.177,111.243 47.840,110.711 48.553 C 110.180 49.267,109.539 50.063,109.286 50.323 C 108.020 51.628,103.451 57.613,99.132 63.623 C 97.486 65.914,96.040 67.867,95.918 67.965 C 95.795 68.062,94.195 70.357,92.361 73.066 C 85.374 83.383,81.770 88.878,81.770 89.212 C 81.770 89.402,81.629 89.558,81.457 89.558 C 81.285 89.558,81.051 89.836,80.936 90.177 C 80.719 90.820,79.842 92.383,78.829 93.928 C 78.157 94.954,77.507 96.074,74.583 101.239 C 72.310 105.253,64.671 120.251,63.580 122.840 C 63.212 123.712,62.476 125.381,61.942 126.549 C 60.999 128.617,60.335 130.126,59.333 132.478 C 59.064 133.111,58.506 134.383,58.095 135.305 C 57.683 136.227,56.924 138.059,56.408 139.376 C 55.892 140.693,55.334 141.921,55.168 142.106 C 55.003 142.291,54.867 142.651,54.867 142.907 C 54.867 143.162,54.567 144.046,54.200 144.871 C 53.833 145.696,53.180 147.327,52.750 148.496 C 51.808 151.048,51.536 151.760,51.057 152.920 C 50.855 153.407,50.499 154.363,50.265 155.044 C 50.031 155.726,49.703 156.602,49.536 156.991 C 49.292 157.558,46.753 165.220,43.847 174.159 C 42.855 177.209,40.423 178.670,38.142 177.588 C 35.893 176.521,35.813 175.914,37.178 170.265 C 37.343 169.584,37.639 168.310,37.836 167.434 C 38.599 164.045,41.120 154.073,41.640 152.389 C 41.941 151.416,42.310 150.142,42.461 149.558 C 42.842 148.088,43.568 145.486,43.894 144.425 C 44.043 143.938,44.359 142.823,44.595 141.947 C 44.831 141.071,45.169 140.077,45.344 139.739 C 45.520 139.401,45.664 138.881,45.664 138.584 C 45.664 138.287,45.803 137.767,45.974 137.429 C 46.145 137.091,46.442 136.257,46.634 135.575 C 47.623 132.070,47.936 131.121,48.203 130.814 C 48.364 130.629,48.496 130.121,48.496 129.685 C 48.496 129.248,48.655 128.793,48.850 128.673 C 49.044 128.552,49.204 128.142,49.204 127.762 C 49.204 127.381,49.355 126.793,49.541 126.455 C 49.726 126.117,50.215 124.805,50.626 123.540 C 51.037 122.274,51.507 120.920,51.670 120.531 C 51.833 120.142,52.316 118.867,52.743 117.699 C 53.659 115.195,54.127 114.031,54.555 113.191 C 54.727 112.853,54.867 112.419,54.867 112.228 C 54.867 112.036,55.249 111.038,55.716 110.010 C 56.183 108.983,56.997 107.106,57.526 105.841 C 59.500 101.111,65.306 89.080,66.750 86.726 C 67.168 86.044,68.598 83.655,69.927 81.416 C 71.256 79.177,72.895 76.549,73.569 75.575 C 76.272 71.673,79.161 67.686,80.624 65.841 C 81.473 64.770,82.357 63.652,82.588 63.357 C 86.879 57.885,94.083 50.138,99.863 44.779 C 102.784 42.071,106.958 38.388,108.142 37.473 C 108.726 37.022,109.403 36.461,109.646 36.228 C 110.116 35.777,112.770 35.886,115.858 36.485 M139.292 39.859 C 141.044 40.169,142.996 40.505,143.628 40.604 C 145.032 40.825,145.070 41.271,143.804 42.655 C 143.269 43.240,142.434 44.224,141.947 44.843 C 141.460 45.462,139.779 47.533,138.211 49.445 C 136.643 51.356,134.499 54.035,133.448 55.398 C 132.396 56.761,131.402 58.035,131.240 58.230 C 127.577 62.614,111.835 85.536,108.876 90.796 C 108.657 91.186,108.069 92.142,107.569 92.920 C 107.069 93.699,106.136 95.292,105.496 96.460 C 104.855 97.628,104.214 98.743,104.071 98.938 C 103.767 99.351,102.117 102.350,100.663 105.133 C 100.104 106.204,99.566 107.159,99.469 107.257 C 99.240 107.486,95.542 114.958,92.637 121.062 C 89.928 126.753,86.624 134.140,85.670 136.637 C 85.409 137.319,85.063 138.027,84.899 138.212 C 84.736 138.397,84.602 138.757,84.602 139.013 C 84.602 139.268,84.267 140.232,83.859 141.154 C 83.450 142.077,82.972 143.190,82.797 143.628 C 81.965 145.707,81.664 146.418,81.375 146.986 C 81.203 147.324,81.062 147.844,81.062 148.142 C 81.062 148.439,80.921 148.959,80.749 149.297 C 80.577 149.635,80.259 150.350,80.041 150.885 C 79.824 151.420,79.497 152.217,79.315 152.655 C 79.133 153.093,78.645 154.487,78.230 155.752 C 77.815 157.018,77.332 158.372,77.155 158.761 C 76.979 159.150,75.624 163.133,74.144 167.611 C 70.896 177.435,69.706 179.007,66.514 177.685 C 64.373 176.798,64.161 175.877,65.113 171.593 C 65.319 170.668,65.637 169.235,65.821 168.407 C 66.005 167.580,66.337 166.186,66.558 165.310 C 66.779 164.434,67.044 163.118,67.146 162.387 C 67.248 161.656,67.474 160.969,67.648 160.862 C 67.822 160.754,67.965 160.127,67.965 159.469 C 67.965 158.811,68.124 158.173,68.319 158.053 C 68.513 157.933,68.673 157.497,68.673 157.084 C 68.673 156.671,68.821 155.844,69.003 155.246 C 69.184 154.648,69.521 153.442,69.752 152.566 C 69.982 151.690,70.293 150.575,70.442 150.088 C 70.592 149.602,70.911 148.487,71.150 147.611 C 71.390 146.735,71.711 145.619,71.863 145.133 C 72.015 144.646,72.483 143.053,72.903 141.593 C 73.323 140.133,74.039 137.823,74.493 136.460 C 74.947 135.097,75.661 132.867,76.079 131.504 C 76.497 130.142,76.982 128.708,77.157 128.319 C 77.332 127.929,77.812 126.575,78.224 125.310 C 78.635 124.044,79.123 122.732,79.309 122.394 C 79.494 122.056,79.646 121.491,79.646 121.138 C 79.646 120.784,79.773 120.344,79.928 120.159 C 80.083 119.974,80.412 119.186,80.659 118.407 C 80.906 117.628,81.279 116.593,81.487 116.106 C 81.695 115.619,82.003 114.863,82.171 114.425 C 82.340 113.987,82.616 113.270,82.784 112.832 C 82.953 112.394,83.293 111.558,83.540 110.973 C 83.787 110.389,84.106 109.593,84.250 109.204 C 84.394 108.814,84.834 107.779,85.228 106.903 C 85.622 106.027,86.183 104.752,86.474 104.071 C 88.003 100.501,88.746 98.912,90.779 94.867 C 95.478 85.519,97.371 82.234,102.283 74.895 C 104.059 72.241,106.104 69.304,106.827 68.367 C 107.550 67.431,108.617 66.041,109.198 65.279 C 114.188 58.732,123.266 49.032,130.796 42.200 C 134.404 38.928,134.259 38.967,139.292 39.859 M164.602 44.248 C 165.478 44.413,166.912 44.652,167.788 44.779 C 168.664 44.906,169.699 45.152,170.088 45.326 C 170.478 45.500,171.354 45.687,172.035 45.741 C 173.852 45.887,173.632 46.652,170.973 49.443 C 169.708 50.772,167.801 52.894,166.735 54.159 C 165.669 55.425,164.713 56.540,164.611 56.637 C 163.007 58.161,156.106 67.483,151.507 74.336 C 149.744 76.965,148.185 79.282,148.044 79.487 C 147.903 79.692,147.560 80.249,147.281 80.726 C 147.002 81.203,146.039 82.788,145.140 84.248 C 139.692 93.099,131.896 107.847,126.988 118.584 C 126.499 119.655,125.514 121.782,124.800 123.310 C 124.086 124.839,123.209 126.830,122.851 127.735 C 122.493 128.640,121.705 130.460,121.100 131.779 C 120.495 133.098,120.000 134.380,120.000 134.628 C 120.000 134.877,119.865 135.231,119.699 135.416 C 119.534 135.601,119.123 136.469,118.785 137.345 C 118.032 139.300,117.216 141.212,116.784 142.031 C 116.606 142.369,116.460 142.856,116.460 143.115 C 116.460 143.373,116.142 144.243,115.752 145.049 C 115.363 145.855,115.044 146.684,115.044 146.890 C 115.044 147.259,114.862 147.692,114.038 149.287 C 113.812 149.723,113.628 150.322,113.628 150.619 C 113.628 150.917,113.488 151.437,113.316 151.775 C 112.747 152.893,112.268 154.132,111.504 156.460 C 111.089 157.726,110.611 159.080,110.441 159.469 C 109.844 160.833,104.147 177.880,102.928 181.947 C 102.724 182.628,102.442 183.504,102.301 183.894 C 102.034 184.634,101.635 185.990,100.896 188.673 C 100.655 189.549,100.315 190.631,100.140 191.079 C 99.966 191.526,99.823 192.273,99.823 192.739 C 99.823 193.205,99.681 193.674,99.508 193.781 C 99.211 193.965,99.102 194.403,98.555 197.614 C 98.431 198.346,98.187 199.032,98.014 199.139 C 97.841 199.246,97.699 199.873,97.699 200.531 C 97.699 201.189,97.557 201.816,97.383 201.924 C 97.208 202.031,96.980 202.718,96.874 203.449 C 96.769 204.180,96.513 205.535,96.306 206.460 C 95.110 211.795,94.624 214.227,93.438 220.796 C 89.965 240.037,89.696 261.616,92.742 276.637 C 92.939 277.611,93.201 279.008,93.324 279.743 C 93.446 280.478,93.685 281.164,93.853 281.268 C 94.021 281.373,94.159 281.795,94.159 282.208 C 94.159 283.102,94.839 285.350,95.846 287.788 C 96.047 288.274,96.411 289.230,96.655 289.912 C 99.599 298.138,108.309 309.027,111.945 309.027 C 112.209 309.027,112.576 309.174,112.761 309.353 C 113.708 310.274,117.336 310.562,120.192 309.944 C 121.741 309.608,123.407 309.253,123.894 309.154 C 124.381 309.054,125.137 308.826,125.575 308.646 C 126.013 308.466,126.730 308.179,127.168 308.009 C 128.373 307.542,131.480 306.052,131.681 305.845 C 131.779 305.746,132.575 305.278,133.451 304.807 C 143.390 299.461,156.482 286.637,172.147 266.903 C 174.301 264.189,181.266 254.624,183.746 250.973 C 184.606 249.708,185.411 248.593,185.535 248.496 C 185.659 248.398,186.057 247.822,186.420 247.216 C 186.783 246.609,188.341 244.220,189.882 241.906 C 194.807 234.514,196.106 232.518,196.106 232.347 C 196.106 232.256,196.903 231.000,197.876 229.558 C 198.850 228.115,199.646 226.839,199.646 226.722 C 199.646 226.605,200.283 225.572,201.062 224.425 C 201.841 223.278,202.478 222.236,202.478 222.109 C 202.478 221.983,202.778 221.456,203.144 220.940 C 203.511 220.423,204.128 219.442,204.516 218.761 C 204.903 218.080,206.725 214.973,208.564 211.858 C 210.403 208.743,212.391 205.319,212.981 204.248 C 213.572 203.177,214.422 201.664,214.870 200.885 C 215.318 200.106,216.113 198.673,216.637 197.699 C 217.938 195.283,219.019 193.397,219.693 192.367 L 220.258 191.504 228.005 191.504 C 235.149 191.504,235.752 191.553,235.747 192.124 C 235.741 192.848,234.932 195.275,234.579 195.628 C 234.445 195.761,234.336 196.164,234.336 196.524 C 234.336 196.884,234.196 197.454,234.024 197.792 C 233.852 198.130,233.514 198.885,233.274 199.469 C 233.034 200.053,232.697 200.808,232.525 201.146 C 232.353 201.484,232.212 202.004,232.212 202.301 C 232.212 202.598,232.072 203.118,231.900 203.456 C 231.607 204.031,231.309 204.737,230.442 206.903 C 230.248 207.389,229.929 208.186,229.735 208.673 C 229.540 209.159,229.221 209.956,229.027 210.442 C 228.832 210.929,228.513 211.726,228.319 212.212 C 228.124 212.699,227.822 213.456,227.647 213.894 C 227.472 214.332,227.090 215.248,226.797 215.929 C 226.505 216.611,225.275 219.478,224.064 222.301 C 222.854 225.124,221.270 228.708,220.546 230.265 C 219.821 231.823,218.764 234.129,218.198 235.389 C 217.115 237.798,210.051 251.888,208.254 255.221 C 206.864 257.801,204.078 262.845,202.486 265.664 C 202.047 266.442,201.387 267.502,201.021 268.019 C 200.654 268.536,200.354 269.069,200.354 269.204 C 200.354 269.338,200.054 269.871,199.687 270.388 C 199.321 270.905,198.705 271.885,198.319 272.566 C 196.008 276.644,187.524 289.507,184.777 293.097 C 184.255 293.779,182.945 295.531,181.865 296.991 C 180.784 298.451,179.604 299.995,179.242 300.422 C 178.880 300.849,177.788 302.187,176.814 303.395 C 168.744 313.412,158.075 324.018,149.912 330.140 C 146.906 332.394,142.801 335.221,142.533 335.221 C 142.445 335.221,141.361 335.824,140.125 336.561 C 136.920 338.469,131.723 340.885,130.821 340.885 C 130.539 340.885,130.209 341.044,130.088 341.239 C 129.968 341.434,129.490 341.593,129.027 341.593 C 128.563 341.593,128.096 341.734,127.990 341.906 C 127.883 342.078,127.277 342.323,126.642 342.450 C 126.006 342.578,124.690 342.856,123.717 343.069 C 120.511 343.771,109.955 343.831,107.292 343.164 C 95.337 340.166,85.264 330.510,79.991 316.991 C 79.236 315.056,78.235 312.240,77.852 310.973 C 77.617 310.195,77.299 309.239,77.146 308.850 C 76.893 308.205,76.536 306.764,74.912 299.823 C 74.434 297.783,73.685 292.626,72.569 283.698 C 72.115 280.073,72.104 255.668,72.554 251.681 C 72.741 250.027,73.154 245.965,73.472 242.655 C 73.791 239.345,74.288 235.204,74.578 233.451 C 74.867 231.699,75.250 229.230,75.428 227.965 C 75.805 225.285,76.228 222.691,76.812 219.469 C 77.458 215.905,78.396 211.151,78.941 208.673 C 79.156 207.699,79.412 206.345,79.511 205.664 C 79.609 204.982,79.828 204.106,79.998 203.717 C 80.305 203.011,80.573 201.728,80.942 199.201 C 81.049 198.470,81.279 197.784,81.453 197.676 C 81.627 197.568,81.770 196.942,81.770 196.283 C 81.770 195.625,81.929 194.988,82.124 194.867 C 82.319 194.747,82.478 194.110,82.478 193.451 C 82.478 192.793,82.620 192.167,82.793 192.060 C 82.966 191.953,83.190 191.346,83.291 190.711 C 83.392 190.077,83.663 188.920,83.894 188.142 C 84.125 187.363,84.396 186.206,84.497 185.572 C 84.598 184.937,84.822 184.331,84.995 184.224 C 85.168 184.117,85.310 183.638,85.310 183.160 C 85.310 182.682,85.454 182.015,85.629 181.677 C 85.805 181.339,86.122 180.425,86.334 179.646 C 88.193 172.820,95.365 151.752,96.665 149.297 C 96.845 148.959,96.991 148.513,96.991 148.306 C 96.991 148.100,97.310 147.271,97.699 146.465 C 98.088 145.659,98.407 144.863,98.407 144.695 C 98.407 144.528,98.726 143.731,99.115 142.925 C 99.504 142.119,99.823 141.329,99.823 141.169 C 99.823 141.008,100.142 140.162,100.531 139.288 C 100.920 138.414,101.558 136.984,101.947 136.110 C 102.336 135.236,102.655 134.375,102.655 134.197 C 102.655 134.018,102.964 133.260,103.341 132.511 C 103.719 131.763,105.269 128.442,106.788 125.133 C 110.687 116.632,119.180 99.883,120.699 97.699 C 121.038 97.212,121.378 96.655,121.454 96.460 C 121.744 95.721,124.903 90.294,126.460 87.858 C 126.996 87.021,127.434 86.258,127.434 86.163 C 127.434 86.068,128.389 84.569,129.558 82.832 C 130.726 81.095,131.681 79.508,131.681 79.306 C 131.681 79.103,131.841 78.938,132.035 78.938 C 132.230 78.938,132.389 78.729,132.389 78.474 C 132.389 78.219,132.673 77.701,133.020 77.323 C 133.366 76.946,133.964 76.130,134.347 75.509 C 139.013 67.960,149.972 54.121,157.516 46.251 C 160.482 43.156,159.818 43.344,164.602 44.248 " stroke="none" fill="#fbfbfb" fill-rule="evenodd"></path>-->
  </g>
</svg>
